<svg xmlns="http://www.w3.org/2000/svg"  viewBox="0 0 24 24" width="240px" height="240px" fill="black"><path d="M 12 2 C 6.4889971 2 2 6.4889971 2 12 C 2 17.511003 6.4889971 22 12 22 C 17.511003 22 22 17.511003 22 12 C 22 6.4889971 17.511003 2 12 2 z M 12 4 C 16.430123 4 20 7.5698774 20 12 C 20 16.430123 16.430123 20 12 20 C 7.5698774 20 4 16.430123 4 12 C 4 7.5698774 7.5698774 4 12 4 z M 8.9746094 8 L 8.9746094 13.208984 C 8.9746094 13.663984 9.0492187 14.065062 9.1992188 14.414062 C 9.3492187 14.762062 9.5581719 15.054062 9.8261719 15.289062 C 10.094172 15.524063 10.413203 15.701313 10.783203 15.820312 C 11.154203 15.939312 11.559 16 12 16 C 12.437 16 12.841938 15.939312 13.210938 15.820312 C 13.581938 15.701312 13.900969 15.524062 14.167969 15.289062 C 14.435969 15.054063 14.644875 14.763063 14.796875 14.414062 C 14.948875 14.065063 15.023438 13.663984 15.023438 13.208984 L 15.023438 8 L 13.392578 8 L 13.392578 13.208984 C 13.392578 13.725984 13.269391 14.102844 13.025391 14.339844 C 12.781391 14.576844 12.439047 14.693359 11.998047 14.693359 C 11.561047 14.693359 11.220656 14.576844 10.972656 14.339844 C 10.725656 14.102844 10.601562 13.725984 10.601562 13.208984 L 10.601562 8 L 8.9746094 8 z"/></svg>